<svg xmlns="http://www.w3.org/2000/svg" xmlns:xlink="http://www.w3.org/1999/xlink" width="59.897" height="38.245" viewBox="0 0 59.897 38.245"><defs><linearGradient id="a" x1="0.977" x2="0.095" y2="0.774" gradientUnits="objectBoundingBox"><stop offset="0" stop-color="#ed7744"/><stop offset="1" stop-color="#df4b4b"/></linearGradient></defs><g transform="translate(-2374.008 -50.751)"><path d="M2400.528,141.13a13.7,13.7,0,0,1-8.076-2.617,13.846,13.846,0,0,1-17.162-.768l-1.282-1.113s11.671-13.306,15.926-18.208,15.129-5.52,19.681-1.569a13.83,13.83,0,0,1-8.093,24.24Q2401.023,141.13,2400.528,141.13Zm-8.075-7.08c1.163,1.043,3.153,4.874,8.094,4.366s6.054-2.172,7.881-4.276a10.447,10.447,0,0,0-1.039-14.72c-3.455-3-9.035-3.284-9.144-3.221-.456.265-4.349,2.7-4.654,3.054l-14.7,16.937a10.443,10.443,0,0,0,12.431-1.12Z" transform="translate(0 -52.167)" fill="#c8bfbc"/><path d="M2548.872,50.751h-24.265a6.177,6.177,0,0,0-2.154.478,12.4,12.4,0,0,0-8.462,11.748,12.132,12.132,0,1,0,24.265,0c0-.064,0-.127,0-.191A12.132,12.132,0,0,0,2548.872,50.751Z" transform="translate(-114.966 0)" fill="url(#a)"/><path d="M2459.1,137.205a13.846,13.846,0,0,1-13.83-13.83,14.154,14.154,0,0,1,9.636-13.363c.107-.035.21-.07.313-.105a6.714,6.714,0,0,1,2.366-.456h25.962v1.7a13.847,13.847,0,0,1-10.672,13.464A13.849,13.849,0,0,1,2459.1,137.205Zm-1.515-24.36a3.521,3.521,0,0,0-1.267.274c-.119.041-.239.082-.363.122a10.724,10.724,0,0,0-7.289,10.134,10.435,10.435,0,1,0,20.87,0l0-.052c0-.037,0-.074,0-.112l-.025-1.524,1.513-.188a10.442,10.442,0,0,0,8.994-8.653Z" transform="translate(-58.524 -48.209)" fill="#3c3341"/></g></svg>