<svg xmlns="http://www.w3.org/2000/svg" width="62.5" height="20.375" viewBox="0 0 62.5 20.375"><path d="M577.44,550.418c.245.031.306.153.276.367V553.6c0,.306-.092.306-.337.245a9.582,9.582,0,0,0-1.622-.367c-.979-.122-1.469.214-1.653,1.163a9.4,9.4,0,0,0-.122,2.081c0,.214.122.214.275.214.888,0,1.775.031,2.693.031.245,0,.337.061.337.337q-.046,1.377,0,2.754c0,.275-.092.337-.337.337-.857,0-1.744.031-2.6.031-.306,0-.367.092-.367.367,0,2.846-.061,5.692-.061,8.569,0,.306-.061.428-.4.428-1.071-.061-2.142-.092-3.183-.092-.275,0-.4-.061-.4-.4,0-2.846-.061-5.692-.061-8.508,0-.306-.092-.4-.4-.367-.459.031-.918,0-1.408,0-.214,0-.275-.031-.275-.275v-2.265c0-.184.061-.245.245-.275.49-.092,1.01-.245,1.5-.337.245-.061.337-.122.337-.4A17.072,17.072,0,0,1,570,553.57a4.418,4.418,0,0,1,3-3.489A6.014,6.014,0,0,1,577.44,550.418Z" transform="translate(-515.222 -549.809)" fill="#fff"/><path d="M483.97,580.045c.214-.918.459-1.806.673-2.724.337-1.347.643-2.693.979-4.04.061-.245.153-.337.4-.337.857.031,1.744.031,2.6,0,.306,0,.428.092.49.4l1.469,6.243a.824.824,0,0,0,.153.337l.184-1.194c.245-1.836.49-3.672.734-5.539.031-.184.092-.245.275-.245,1.163,0,2.357,0,3.519-.031.306,0,.214.153.184.306l-2.02,8.63-.918,3.764c-.061.214-.122.306-.367.306-1.01-.031-2.02,0-3.06,0-.214,0-.306-.061-.367-.306-.52-2.448-1.071-4.9-1.591-7.345,0-.031-.031-.061-.061-.214-.122.581-.214,1.041-.306,1.53l-1.1,6.06c-.031.214-.122.306-.367.275-1.1-.031-2.234-.031-3.336-.031-.214,0-.306-.061-.337-.275-.949-4.132-1.9-8.294-2.846-12.425-.061-.275,0-.337.275-.306,1.071.031,2.142.031,3.183,0,.337,0,.428.122.49.428.306,2.2.643,4.438.949,6.641C483.939,580.045,483.97,580.045,483.97,580.045Z" transform="translate(-453.55 -565.817)" fill="#fff"/><path d="M536.35,571.106v-2.3c0-.306-.092-.429-.4-.4-.459.031-.918,0-1.347,0-.214,0-.306-.031-.306-.276,0-.734.031-1.5,0-2.234a.292.292,0,0,1,.276-.337c.459-.122.918-.245,1.377-.337.337-.061.4-.214.4-.52-.031-.7,0-1.408,0-2.142,0-.122.184-.275.184-.275l3.244-.826a.5.5,0,0,1,.643.52v2.724c0,.275.092.337.337.337.857,0,1.683.031,2.54.031.245,0,.306.092.306.306-.031.918-.031,1.806-.031,2.724,0,.306-.092.337-.367.337h-2.448c-.245,0-.337.031-.337.306v4.438c0,1.255.643,1.806,1.928,1.683a7.7,7.7,0,0,0,.826-.122c.184-.031.275.031.245.214,0,.888-.031,1.775,0,2.632,0,.245-.122.306-.306.4a5.742,5.742,0,0,1-2.387.245,6.975,6.975,0,0,1-1.591-.306,3.642,3.642,0,0,1-2.693-3.366C536.35,573.493,536.381,572.422,536.35,571.106Z" transform="translate(-491.975 -557.888)" fill="#fff"/><rect width="6.488" height="6.488" transform="translate(6.488 13.004)" fill="#fff"/><rect width="6.488" height="6.488" transform="translate(0 6.516)" fill="#fff"/><rect width="6.488" height="1.316" transform="translate(12.976 9.087)" fill="#fff"/></svg>