<svg xmlns="http://www.w3.org/2000/svg" xmlns:xlink="http://www.w3.org/1999/xlink" width="62.694" height="39.909" viewBox="0 0 62.694 39.909"><defs><linearGradient id="a" y1="0.5" x2="1" y2="0.5" gradientUnits="objectBoundingBox"><stop offset="0" stop-color="#d5130f"/><stop offset="1" stop-color="#f4711b"/></linearGradient></defs><path d="M2379.347,448.11l-1.485-1.282,17.862-20.692a7.272,7.272,0,0,1,2.025-1.6c.1-.056.194-.114.294-.174a14.989,14.989,0,0,1,17.381,1.522,25.962,25.962,0,0,1-36.076,22.226Zm33.512-19.256a11.026,11.026,0,0,0-12.783-1.136c-.118.071-.233.139-.348.206a3.545,3.545,0,0,0-1.035.776l-15.18,17.585a10.733,10.733,0,0,0,12.583-1.3l1.307-1.182,1.314,1.173.089.081.036.033a10.724,10.724,0,0,0,14.015-16.237Z" transform="translate(-2377.862 -411.76)" fill="#c8bfbc"/><path d="M2554.659,366.012h-25.373a6.456,6.456,0,0,0-2.252.5,12.967,12.967,0,0,0-8.849,12.285,12.687,12.687,0,0,0,25.373,0c0-.067,0-.133-.005-.2A12.686,12.686,0,0,0,2554.659,366.012Z" transform="translate(-2491.963 -366.012)" fill="url(#a)"/><path d="M2463.106,451.669a14.665,14.665,0,0,1-14.648-14.648,14.989,14.989,0,0,1,10.206-14.151c.111-.036.218-.073.323-.109a7.277,7.277,0,0,1,2.534-.487h27.334v1.962a14.667,14.667,0,0,1-11.172,14.229A14.669,14.669,0,0,1,2463.106,451.669Zm-1.584-25.472a3.541,3.541,0,0,0-1.264.276c-.125.043-.252.086-.384.128a11.026,11.026,0,0,0-7.492,10.419,10.725,10.725,0,0,0,21.449,0l0-.046c0-.042,0-.085,0-.127l-.024-1.757,1.744-.217a10.731,10.731,0,0,0,9.206-8.676Z" transform="translate(-2435.266 -411.76)" fill="#fff"/></svg>