<svg xmlns="http://www.w3.org/2000/svg" width="163.884" height="115.232" viewBox="0 0 163.884 115.232"><g transform="translate(-2883.102 -457.363)"><g transform="translate(2905.279 478.238)"><g transform="translate(0.373)" fill="none" stroke="#3c3341" stroke-miterlimit="10" stroke-width="4"><rect width="114.918" height="77.941" stroke="none"/><rect x="2" y="2" width="110.918" height="73.941" fill="none"/></g><g transform="translate(0 60.233)" fill="none" stroke="#3c3341" stroke-miterlimit="10" stroke-width="4"><rect width="114.918" height="17.846" stroke="none"/><rect x="2" y="2" width="110.918" height="13.846" fill="none"/></g><g transform="translate(33.232 84.395)" fill="none" stroke="#3c3341" stroke-miterlimit="10" stroke-width="4"><rect width="48.454" height="9.733" stroke="none"/><rect x="2" y="2" width="44.454" height="5.733" fill="none"/></g><g transform="translate(46.582 74.536)" fill="none" stroke="#3c3341" stroke-miterlimit="10" stroke-width="4"><rect width="21.755" height="13.218" stroke="none"/><rect x="2" y="2" width="17.755" height="9.218" fill="none"/></g></g><g transform="translate(2883.102 516.103)"><g transform="translate(0.127)" fill="#edf0f8" stroke="#3c3341" stroke-miterlimit="10" stroke-width="4"><rect width="39.054" height="56.414" stroke="none"/><rect x="2" y="2" width="35.054" height="52.414" fill="none"/></g><g transform="translate(0 41.007)" fill="none" stroke="#3c3341" stroke-miterlimit="10" stroke-width="4"><rect width="39.054" height="15.485" stroke="none"/><rect x="2" y="2" width="35.054" height="11.485" fill="none"/></g><line x2="11.443" transform="translate(13.805 48.749)" fill="none" stroke="#3c3341" stroke-miterlimit="10" stroke-width="4"/></g><g transform="translate(2974.053 456.815)"><g transform="translate(0.097 50.903) rotate(-90)" fill="#edf0f8" stroke="#3c3341" stroke-miterlimit="10" stroke-width="4"><rect width="50.353" height="72.736" stroke="none"/><rect x="2" y="2" width="46.353" height="68.736" fill="none"/></g><g transform="translate(61.082 50.902) rotate(-90)" fill="none" stroke="#3c3341" stroke-miterlimit="10" stroke-width="4"><rect width="50.353" height="11.851" stroke="none"/><rect x="2" y="2" width="46.353" height="7.851" fill="none"/></g><g transform="translate(0 50.903) rotate(-90)" fill="none" stroke="#3c3341" stroke-miterlimit="10" stroke-width="4"><rect width="50.353" height="11.851" stroke="none"/><rect x="2" y="2" width="46.353" height="7.851" fill="none"/></g></g><g transform="translate(-0.253 -6.146)"><path d="M3002.611,521.168V532.88c0,2.2-2.208,4-4.905,4h-63.778" transform="translate(0 -0.836)" fill="none" stroke="#e96d53" stroke-miterlimit="10" stroke-width="3"/><path d="M3013.217,524.569l5.2-5.04,5.108,5.04" transform="translate(-15.77)" fill="none" stroke="#e96d53" stroke-miterlimit="10" stroke-width="3"/></g><g transform="translate(2915.675 491.382)"><path d="M2933.928,538.317V526.641a4.012,4.012,0,0,1,4-4h43.891" transform="translate(-2928.78 -522.64)" fill="none" stroke="#e96d53" stroke-miterlimit="10" stroke-width="3"/><path d="M3023.529,519.528l-5.2,5.04-5.108-5.04" transform="translate(-3013.218 -508.052)" fill="none" stroke="#e96d53" stroke-miterlimit="10" stroke-width="3"/></g></g></svg>